PathFileType	4	(X/Y/Z)	Run_200 01
DataRate	CameraRate	NumFrames	NumMarkers	Units	OrigDataRate	OrigDataStartFrame	OrigNumFrames
120	120	4	42	mm	120	175	128
Frame#	Time	LASI			RASI			LPSI			RPSI			RTH1			RTH2			RTH3			LTH1			LTH2			LTH3			RTB1			RTB2			RTB3			LTB1			LTB2			LTB3			RCAL			RTOE			RMT5			LCAL			LTOE			LMT5			LACR			RACR			CLAV			C7			RUA1			RUA2			RUA3			RLEL			LUA1			LUA2			LUA3			LLEL			RFAsuperior			RFAradius			RFAulna			LFAsuperior			LFAradius			LFAulna			LMEL			RMEL			
		X1	Y1	Z1	X2	Y2	Z2	X3	Y3	Z3	X4	Y4	Z4	X5	Y5	Z5	X6	Y6	Z6	X7	Y7	Z7	X8	Y8	Z8	X9	Y9	Z9	X10	Y10	Z10	X11	Y11	Z11	X12	Y12	Z12	X13	Y13	Z13	X14	Y14	Z14	X15	Y15	Z15	X16	Y16	Z16	X17	Y17	Z17	X18	Y18	Z18	X19	Y19	Z19	X20	Y20	Z20	X21	Y21	Z21	X22	Y22	Z22	X23	Y23	Z23	X24	Y24	Z24	X25	Y25	Z25	X26	Y26	Z26	X27	Y27	Z27	X28	Y28	Z28	X29	Y29	Z29	X30	Y30	Z30	X31	Y31	Z31	X32	Y32	Z32	X33	Y33	Z33	X34	Y34	Z34	X35	Y35	Z35	X36	Y36	Z36	X37	Y37	Z37	X38	Y38	Z38	X39	Y39	Z39	X40	Y40	Z40	X41	Y41	Z41	X42	Y42	Z42	

172	1.591667	1075.787014	1041.63492	-428.99334	1061.292578	1062.558051	-198.542914	909.297141	1092.803926	-377.790763	900.8919059999999	1096.437847	-279.651551	1039.502379	909.046708	-136.41832	1147.574297	787.474729	-161.71773	1124.310091	684.672538	-177.776255	977.250778	877.6822979999999	-489.92873	1022.226478	765.877625	-459.962045	914.394912	665.018596	-447.10184	1228.952829	469.350504	-232.940319	1180.18993	409.649536	-172.386952	1222.588881	289.187052	-233.86491	879.563475	423.128467	-381.961445	795.1851339999999	359.522508	-428.034292	769.1169650000001	263.996082	-359.611118	1110.059583	147.145456	-262.737595	1319.215746	127.646255	-282.768935	1302.844869	79.674018	-185.722444	609.581802	227.543428	-353.150142	749.935964	88.17127000000001	-292.795701	728.648899	57.528617	-398.699681	1093.049849	1529.910297	-503.568087	1028.22756	1528.71193	-147.774995	1122.664273	1480.428061	-285.857929	1022.040323	1564.265683	-340.052376	970.644875	1468.930749	-109.601311	945.741951	1383.246559	-123.935812	868.047532	1414.697135	-141.152762	793.947051	1328.146586	-131.475322	1072.388973	1453.442174	-558.402069	1003.963186	1406.12561	-554.531113	1063.828462	1349.078894	-580.868413	998.2801480000001	1247.063082	-620.254279	820.986284	1248.245946	-92.55722900000001	832.260617	1058.125243	-84.204706	773.278193	1059.496647	-116.791882	1076.153285	1254.830734	-587.311798	1198.002258	1289.507381	-442.469776	1203.740028	1223.323961	-442.689165	945.802473	1247.685463	-563.766583	804.996608	1324.507294	-194.811488	
173	1.6	1078.10609	1045.250636	-429.16102	1063.058504	1066.442437	-197.314969	911.384058	1096.224205	-378.044324	903.073845	1099.934685	-279.925038	1039.269311	911.1878	-137.287213	1145.542327	787.594708	-160.418665	1121.436479	684.937798	-176.542775	978.353687	882.27178	-491.15951	1021.457976	769.782366	-460.780907	912.937875	670.08744	-446.349951	1230.426838	471.245273	-232.647975	1185.039488	409.207033	-171.785762	1233.011648	291.132573	-234.105984	875.776628	428.225052	-381.912909	790.71783	365.488574	-428.49889	763.511432	269.999647	-360.108604	1127.164642	144.793868	-262.750688	1336.492784	133.618532	-286.364548	1323.541931	82.40233600000001	-190.45141	605.26143	238.770828	-353.867714	738.382286	92.29603	-293.292637	715.410148	62.212275	-398.520741	1093.679232	1533.566751	-501.81682	1028.880701	1531.502726	-146.846535	1123.016218	1483.303146	-284.660298	1022.455337	1567.094717	-338.692221	970.960472	1472.981294	-108.306483	945.7381789999999	1386.987397	-122.969981	868.505867	1419.01634	-141.357886	793.937486	1332.459363	-132.038289	1073.294018	1458.075278	-557.412015	1004.81668	1411.171268	-554.071029	1064.305608	1354.047259	-580.813365	998.3977180000001	1252.114308	-620.841982	820.883705	1252.472782	-92.681918	832.5450540000001	1062.115943	-83.891746	773.821174	1063.257336	-116.825485	1075.937311	1260.227676	-587.265632	1196.239649	1296.129279	-441.455296	1202.529734	1229.970966	-441.285876	945.478779	1252.768921	-564.71146	805.83916	1328.514292	-195.076711	
174	1.608333	1080.276707	1048.237179	-429.164236	1064.851363	1068.801953	-196.576192	913.4455380000001	1098.991156	-378.157286	905.13415	1102.563411	-279.970202	1038.794429	912.299019	-138.218358	1143.866432	786.985843	-159.407646	1118.94867	684.483079	-175.590893	979.605252	886.47348	-492.399011	1021.206039	773.099406	-461.807745	912.702859	674.177205	-445.576389	1231.639144	472.720902	-232.244366	1188.493697	408.873382	-171.417689	1241.532316	293.088042	-234.322962	873.179987	432.456175	-381.405715	787.486054	370.831264	-428.782151	758.488278	275.593699	-360.422593	1141.452629	143.292295	-263.463339	1350.888139	139.152377	-288.514956	1340.347073	85.78340900000001	-193.704426	601.391212	249.62126	-354.450925	727.207763	96.695356	-293.620573	702.563669	67.165063	-398.179284	1093.880734	1536.462466	-500.186465	1029.513491	1533.404996	-145.761521	1123.347545	1485.418423	-283.458399	1022.741817	1569.198751	-337.217147	971.298361	1476.067421	-106.835739	945.8185570000001	1389.735221	-121.975955	868.95664	1422.185856	-141.273481	794.075193	1335.634022	-132.193091	1073.709618	1461.87134	-556.447485	1005.240974	1415.318884	-553.604098	1064.416215	1358.166851	-580.841317	998.093508	1256.393941	-621.42345	821.0481129999999	1255.584277	-92.53021200000001	833.253185	1065.033495	-83.290657	774.858547	1065.880524	-116.684007	1075.360816	1264.693545	-587.328367	1194.250659	1301.292144	-440.640228	1201.097484	1235.1531	-440.324889	944.872688	1256.960681	-565.780432	806.672388	1331.43437	-194.999032	
175	1.616667	1082.26691	1050.547996	-428.921684	1066.597149	1069.528799	-196.687534	915.394272	1101.09693	-378.134567	906.952284	1104.284339	-279.812522	1038.214852	912.482413	-138.935051	1142.704406	785.859121	-158.887494	1116.999658	683.496078	-175.147524	981.052874	889.806317	-493.117045	1021.594736	775.672358	-462.822298	913.923616	676.989565	-444.983121	1232.668562	473.850094	-231.984374	1190.86818	408.662938	-171.388717	1248.15396	294.848399	-234.664909	871.81141	435.543451	-380.699493	785.351465	375.422458	-428.888546	754.063453	280.631844	-360.617533	1152.686362	142.573503	-264.861305	1362.362286	143.281517	-289.028283	1352.837677	88.943585	-195.392712	597.997781	260.046965	-354.931304	716.360009	101.202259	-293.821687	690.070171	72.24135800000001	-397.708082	1093.66593	1538.616644	-498.718247	1030.146098	1534.416458	-144.464884	1123.66601	1486.803239	-282.262263	1022.93608	1570.573503	-335.638628	971.697909	1478.03548	-105.215838	946.02942	1391.411987	-120.920421	869.41445	1424.15469	-140.825709	794.3556170000001	1337.566228	-131.906374	1073.580158	1464.791162	-555.487441	1005.188864	1418.531237	-553.103614	1064.144468	1361.400029	-580.95366	997.3564	1259.89635	-621.970046	821.422239	1257.537568	-92.074214	834.39482	1066.869289	-82.38433499999999	776.345386	1067.347824	-116.327734	1074.439756	1268.162158	-587.541896	1192.101297	1304.955669	-440.035199	1199.463486	1238.818107	-439.819704	943.926974	1260.31475	-566.829669	807.444439	1333.276912	-194.549031	
